HIERARCHY
ROOT Hips
{
    OFFSET 0.000000 0.000000 0.000000
    CHANNELS 6 Xposition Yposition Zposition Zrotation Xrotation Yrotation
    JOINT Spine
    {
        OFFSET -0.000000 14.517291 0.000000
        CHANNELS 3 Zrotation Xrotation Yrotation
        JOINT Spine1
        {
            OFFSET -0.000000 37.558300 0.000000
            CHANNELS 3 Zrotation Xrotation Yrotation
            JOINT Neck
            {
                OFFSET -0.000000 37.404057 3.400369
                CHANNELS 3 Zrotation Xrotation Yrotation
                JOINT Head
                {
                    OFFSET -0.000000 24.785618 -3.540803
                    CHANNELS 3 Zrotation Xrotation Yrotation
                    End Site
                    {
                        OFFSET -0.000000 35.408028 0.000000
                    }
                }
            }
            JOINT LeftShoulder
            {
                OFFSET 6.992933 33.973492 -0.192664
                CHANNELS 3 Zrotation Xrotation Yrotation
                JOINT LeftArm
                {
                    OFFSET 21.527611 0.000000 0.000000
                    CHANNELS 3 Zrotation Xrotation Yrotation
                    JOINT LeftForeArm
                    {
                        OFFSET 56.353916 0.000000 0.000000
                        CHANNELS 3 Zrotation Xrotation Yrotation
                        JOINT LeftHand
                        {
                            OFFSET 47.774071 0.000000 0.000000
                            CHANNELS 3 Zrotation Xrotation Yrotation
                            End Site
                            {
                                OFFSET 26.556021 0.000000 0.000000
                            }
                        }
                    }
                }
            }
            JOINT RightShoulder
            {
                OFFSET -7.065357 33.973492 -0.192664
                CHANNELS 3 Zrotation Xrotation Yrotation
                JOINT RightArm
                {
                    OFFSET -21.527611 0.000000 0.000000
                    CHANNELS 3 Zrotation Xrotation Yrotation
                    JOINT RightForeArm
                    {
                        OFFSET -56.353916 0.000000 0.000000
                        CHANNELS 3 Zrotation Xrotation Yrotation
                        JOINT RightHand
                        {
                            OFFSET -47.774071 0.000000 0.000000
                            CHANNELS 3 Zrotation Xrotation Yrotation
                            End Site
                            {
                                OFFSET -26.556021 0.000000 0.000000
                            }
                        }
                    }
                }
            }
        }
    }
    JOINT LeftUpLeg
    {
        OFFSET 17.704014 0.000000 0.000000
        CHANNELS 3 Zrotation Xrotation Yrotation
        JOINT LeftLeg
        {
            OFFSET -0.000000 -81.181816 0.000000
            CHANNELS 3 Zrotation Xrotation Yrotation
            JOINT LeftFoot
            {
                OFFSET -0.000000 -62.821102 0.000000
                CHANNELS 3 Zrotation Xrotation Yrotation
                JOINT LeftToeBase
                {
                    OFFSET -0.000000 -11.507608 26.556021
                    CHANNELS 3 Zrotation Xrotation Yrotation
                    End Site
                    {
                        OFFSET -0.000000 0.000000 7.081605
                    }
                }
            }
        }
    }
    JOINT RightUpLeg
    {
        OFFSET -17.704014 0.000000 0.000000
        CHANNELS 3 Zrotation Xrotation Yrotation
        JOINT RightLeg
        {
            OFFSET -0.000000 -81.181816 0.000000
            CHANNELS 3 Zrotation Xrotation Yrotation
            JOINT RightFoot
            {
                OFFSET -0.000000 -62.821102 0.000000
                CHANNELS 3 Zrotation Xrotation Yrotation
                JOINT RightToeBase
                {
                    OFFSET -0.000000 -11.507608 26.556021
                    CHANNELS 3 Zrotation Xrotation Yrotation
                    End Site
                    {
                        OFFSET -0.000000 0.000000 7.081605
                    }
                }
            }
        }
    }
}
MOTION
Frames:    4
Frame Time:    0.008333
-14.239043    150.856674    -4.393480    0.326737    1.748527    29.416132    -3.846566    3.253975    8.811139    -2.538493    -1.328544    2.871977    -0.849396    5.883117    -17.665407    13.881149    -10.241626    -15.177796    2.907121    4.422463    -11.239477    -28.738926    22.083118    -62.157604    0.419137    -30.134403    -95.751472    -12.989101    -28.076452    -16.520594    -0.114149    11.040729    1.349833    38.539516    14.582047    44.520405    -48.869526    -34.254715    32.960281    12.586434    -16.883020    34.035759    -3.081093    -35.646641    -28.886158    -14.789397    30.727690    -21.358877    -4.522789    -1.837215    27.321514    0.000000    0.000000    0.000000    4.190310    6.886767    -25.455328    4.247424    30.278242    -6.063125    1.596204    -34.110088    -7.913634    0.000000    0.000000    0.000000    
-14.261749    150.852646    -4.396847    0.322157    1.755516    29.459145    -3.859917    3.250246    8.807536    -2.519416    -1.314841    2.871217    -0.854895    5.909693    -17.680321    13.883652    -10.263502    -15.189985    2.904671    4.413624    -11.237597    -28.747847    22.006510    -62.294437    0.388273    -30.315577    -96.345322    -12.892337    -28.310532    -16.417297    -0.123011    11.041439    1.351401    38.536793    14.580790    44.525490    -48.878601    -34.246582    32.896824    12.550692    -16.910599    34.044712    -3.096984    -35.659546    -28.899734    -14.771897    30.723366    -21.400778    -4.564227    -1.842863    27.338007    0.000000    0.000000    0.000000    4.208980    6.875167    -25.477274    4.239283    30.271738    -6.079783    1.597008    -34.113033    -7.902729    0.000000    0.000000    0.000000    
-14.285392    150.848038    -4.398563    0.311529    1.773318    29.500198    -3.862144    3.268526    8.776787    -2.551631    -1.351214    2.859559    -0.810617    5.913459    -17.666117    13.862925    -10.252449    -15.185356    2.960757    4.410266    -11.161704    -28.796949    21.929424    -62.447903    0.299960    -30.404049    -96.965538    -12.801027    -28.507156    -16.306297    -0.089422    11.041408    1.369964    38.508656    14.628485    44.531933    -48.899265    -34.342075    32.809422    12.673007    -16.998175    34.230232    -3.105175    -35.682911    -28.920506    -14.775186    30.705975    -21.392647    -4.560070    -1.824384    27.309181    0.000000    0.000000    0.000000    4.227880    6.851476    -25.489416    4.246135    30.266623    -6.095012    1.578080    -34.122509    -7.924114    0.000000    0.000000    0.000000    
-14.305687    150.842773    -4.398611    0.304770    1.783856    29.532537    -3.882791    3.212934    8.802760    -2.504277    -1.279904    2.870734    -0.839499    5.946884    -17.692476    13.880307    -10.281725    -15.203110    2.926246    4.361648    -11.228381    -28.822876    21.837326    -62.518585    0.014364    -30.537979    -97.655441    -12.723211    -28.949848    -16.168053    -0.104888    11.028011    1.359197    38.527119    14.612330    44.512993    -48.824783    -34.508064    32.808308    12.882383    -17.121717    34.506905    -3.113245    -35.701614    -28.940611    -14.774889    30.702372    -21.391382    -4.561714    -1.813425    27.288052    0.000000    0.000000    0.000000    4.242951    6.829327    -25.495863    4.235189    30.280310    -6.090257    1.592465    -34.121494    -7.927928    0.000000    0.000000    0.000000    
